<svg xmlns="http://www.w3.org/2000/svg" viewBox="0 0 136 33">
  <defs>
    <style>
      .cls-1 {
        fill: #FFBF00;
      }
    </style>
  </defs>
  <title>Asset 21x</title>
  <g id="Layer_2" data-name="Layer 2">
    <g id="isologos">
      <path class="cls-1" d="M11.5973 4.29564C10.0629 4.29564 8.76399 4.78734 7.70164 5.77112C6.62406 6.74129 6.08627 7.97433 6.08627 9.46945V10.5206H9.51793V14.6156H6.08627V28.3526H1.94799V14.6156H0.211914V10.5206H1.94799V9.46945C1.94799 6.92322 2.91449 4.74045 4.84868 2.92114C6.79049 1.10224 9.0399 0.186171 11.5973 0.172546V4.29564Z" />
      <path class="cls-1" d="M13.875 28.3526H18.0137V0.172607H13.875V28.3526Z" />
      <path class="cls-1" d="M80.4924 17.7224C80.4924 15.8534 79.8127 14.2396 78.454 12.8812C77.0936 11.5231 75.4723 10.8439 73.5882 10.8439C71.7042 10.8439 70.0824 11.5231 68.7229 12.8812C67.3774 14.226 66.7045 15.8398 66.7045 17.7224C66.7045 19.6186 67.3774 21.2392 68.7229 22.5836C70.0687 23.9285 71.6909 24.6009 73.5882 24.6009C75.4859 24.6009 77.1077 23.9285 78.454 22.5836C79.8127 21.2255 80.4924 19.6054 80.4924 17.7224ZM84.6309 17.7216C84.6309 20.7343 83.5473 23.3226 81.3809 25.4877C79.2137 27.626 76.6166 28.6952 73.5884 28.6952C70.5466 28.6952 67.9495 27.626 65.7963 25.4877C63.6428 23.3362 62.5664 20.7475 62.5664 17.7216C62.5664 14.6957 63.6428 12.1074 65.7963 9.95551C67.9627 7.79038 70.5606 6.70801 73.5884 6.70801C76.6166 6.70801 79.2137 7.79038 81.3809 9.95551C83.5473 12.1206 84.6309 14.7094 84.6309 17.7216Z" />
      <path class="cls-1" d="M100.75 16.0073C100.75 14.6088 100.238 13.3986 99.2157 12.3763C98.1927 11.3545 96.9815 10.8435 95.5823 10.8435C94.1823 10.8435 92.9712 11.3545 91.9486 12.3763C90.9251 13.3986 90.4142 14.6088 90.4142 16.0073V28.3526H86.2764V16.0073C86.2764 13.5464 87.2108 11.3813 89.082 9.51191C90.9524 7.64291 93.1192 6.70801 95.5823 6.70801C98.031 6.70801 100.191 7.64291 102.062 9.51191C103.946 11.3949 104.888 13.5601 104.888 16.0073V28.3526H100.75V16.0073Z" />
      <path class="cls-1" d="M124.438 17.7225C124.438 15.8535 123.758 14.2398 122.399 12.8813C121.039 11.5232 119.418 10.844 117.534 10.844C115.65 10.844 114.028 11.5232 112.668 12.8813C111.323 14.2261 110.65 15.8399 110.65 17.7225C110.65 19.6187 111.323 21.2393 112.668 22.5837C114.014 23.9286 115.636 24.601 117.534 24.601C119.431 24.601 121.053 23.9286 122.399 22.5837C123.758 21.2257 124.438 19.6055 124.438 17.7225ZM128.577 17.7221C128.577 20.7348 127.493 23.3231 125.327 25.4882C123.16 27.6265 120.562 28.6957 117.534 28.6957C114.492 28.6957 111.895 27.6265 109.742 25.4882C107.589 23.3367 106.512 20.748 106.512 17.7221C106.512 14.7098 107.548 12.1279 109.621 9.97603C111.694 7.79767 114.216 6.70849 117.191 6.70849C119.99 6.70849 122.406 7.68346 124.438 9.63341V0.172607H128.577V17.7221Z" />
      <path class="cls-1" d="M130.807 28.3532H134.945V7.05164H130.807V28.3532Z" />
      <path class="cls-1" d="M33.1708 6.74329L28.828 17.7048L24.4363 6.74329H19.731L26.4804 23.9393L22.3802 33.3693H27.0615L37.8673 6.74329H33.1708Z" />
      <path class="cls-1" d="M134.987 2.10903C134.987 3.27355 134.043 4.21807 132.877 4.21807C131.711 4.21807 130.767 3.27355 130.767 2.10903C130.767 0.944517 131.711 0 132.877 0C134.043 0 134.987 0.944517 134.987 2.10903Z" />
      <path class="cls-1" d="M58.2027 10.0321C56.1045 7.84135 53.5736 6.74576 50.6095 6.74576C47.8079 6.74576 45.3849 7.72634 43.3412 9.6871V0.172607H39.1797V17.8223C39.1797 19.5967 39.5486 21.2217 40.2849 22.6972C41.0501 22.817 41.8137 22.9372 42.5804 23.053C42.6482 23.0598 42.7469 23.057 42.7966 23.0177C43.5734 22.4223 45.6002 21.0826 46.3726 20.4839C46.3782 20.4807 46.379 20.4707 46.3915 20.4334C46.1789 20.3697 44.8226 19.5138 42.4585 18.1216C41.9757 17.8387 41.9011 17.8191 42.3523 17.4071C42.6097 17.1715 42.8792 16.9483 43.1255 16.7011C43.4006 16.4302 43.719 16.3099 44.0823 16.2991C45.3331 16.2554 48.6312 17.4648 49.9607 17.4228C50.168 17.4144 50.3172 17.3322 50.484 17.216C51.4709 16.6313 53.5066 15.4556 54.5894 14.9314C55.4881 14.4962 57.7022 13.3001 58.5837 14.5407C58.8331 14.8918 59.4651 15.7814 56.935 17.5871C55.9312 18.4498 44.7055 24.8972 42.8175 26.0032C44.904 27.9066 47.3864 28.8584 50.2642 28.8584C53.296 28.8584 55.9016 27.7832 58.0808 25.6329C60.2596 23.4553 61.35 20.8522 61.35 17.8223C61.35 14.8473 60.3001 12.2506 58.2027 10.0321Z" />
    </g>
  </g>
</svg>
